<svg width="310" height="306" viewBox="0 0 310 306" fill="none" xmlns="http://www.w3.org/2000/svg">
<path d="M215.01 153.39C215.01 186.073 188.156 212.579 155.015 212.579C121.875 212.579 95.0212 186.073 95.0212 153.39C95.0212 120.707 121.875 94.2014 155.015 94.2014C188.156 94.2014 215.01 120.707 215.01 153.39Z" stroke="#00B8FF" stroke-opacity="0.25"/>
<path d="M253.845 153.759C253.845 207.401 209.771 250.898 155.389 250.898C101.006 250.898 56.9322 207.401 56.9322 153.759C56.9322 100.117 101.006 56.6196 155.389 56.6196C209.771 56.6196 253.845 100.117 253.845 153.759Z" stroke="#00B8FF" stroke-opacity="0.25"/>
<path d="M282.972 153.39C282.972 223.108 225.69 279.637 155.015 279.637C84.3404 279.637 27.0585 223.108 27.0585 153.39C27.0585 83.6726 84.3404 27.1438 155.015 27.1438C225.69 27.1438 282.972 83.6726 282.972 153.39Z" stroke="#00B8FF" stroke-opacity="0.25"/>
<path d="M309.112 153.39C309.112 237.352 240.127 305.428 155.015 305.428C69.904 305.428 0.919006 237.352 0.919006 153.39C0.919006 69.4284 69.904 1.35242 155.015 1.35242C240.127 1.35242 309.112 69.4284 309.112 153.39Z" stroke="#00B8FF" stroke-opacity="0.25"/>
</svg>
