<svg width="100" height="53" viewBox="0 0 100 53" fill="none" xmlns="http://www.w3.org/2000/svg">
<path d="M35.9874 50.2131C35.9646 50.2697 35.9235 50.3187 35.8696 50.3538C35.8157 50.389 35.7513 50.4085 35.685 50.41H33.6286C33.5678 50.4118 33.5086 50.3925 33.463 50.3558C33.4175 50.3192 33.3891 50.2681 33.3837 50.2131L32.1085 44.1962V44.1568C32.1055 44.129 32.1088 44.1008 32.1183 44.0742C32.1278 44.0476 32.1432 44.023 32.1637 44.0021C32.1842 43.9812 32.2092 43.9644 32.2371 43.9527C32.2651 43.941 32.2955 43.9347 32.3263 43.9342H33.4794C33.6286 43.9342 33.6811 43.9965 33.7103 44.1174L34.6175 49.4812H34.9703L37.1678 44.1174C37.1852 44.0619 37.223 44.0134 37.2749 43.9801C37.3268 43.9467 37.3897 43.9306 37.4531 43.9342H38.6486C38.6722 43.9326 38.696 43.9356 38.7182 43.9431C38.7404 43.9505 38.7606 43.9623 38.7774 43.9775C38.7941 43.9927 38.8071 44.0111 38.8153 44.0313C38.8235 44.0515 38.8268 44.073 38.825 44.0945C38.8271 44.1198 38.8226 44.1453 38.8119 44.1687L35.9874 50.2131Z" fill="white"/>
<path d="M81.3492 48.0204H81.2816V48.1688C81.2816 48.2055 81.2675 48.2302 81.2675 48.2549C81.2675 48.7853 81.458 49.1177 81.8381 49.3275C82.1909 49.5107 82.6788 49.5858 83.2624 49.5858C83.9821 49.5858 84.7281 49.4026 85.2573 49.278C85.2781 49.2684 85.3015 49.2643 85.3248 49.2661C85.3934 49.2661 85.4478 49.3028 85.475 49.4136L85.5829 49.9934V50.03C85.5833 50.0749 85.5655 50.1183 85.533 50.1521C85.5005 50.1859 85.4555 50.2076 85.4065 50.2132C84.5718 50.4688 83.6966 50.5979 82.8158 50.5952C80.195 50.5952 79.7363 49.3495 79.7363 47.9188C79.7363 46.5998 80.197 45.2808 80.7937 44.6763C81.4187 44.048 82.3683 43.8007 83.5074 43.8007C85.1091 43.8007 86.3167 44.1954 86.3167 45.8359C86.3167 47.8702 84.5668 48.0177 81.3502 48.0177M83.3723 44.7871C81.7988 44.7871 81.4732 45.9211 81.3774 47.1054C83.6434 46.9818 84.8107 47.1054 84.8107 45.8964C84.8107 45.0958 84.2271 44.7871 83.3723 44.7871Z" fill="white"/>
<path d="M33.7556 10.4618C35.3584 10.4618 36.6577 9.28115 36.6577 7.82476C36.6577 6.36838 35.3584 5.18774 33.7556 5.18774C32.1528 5.18774 30.8535 6.36838 30.8535 7.82476C30.8535 9.28115 32.1528 10.4618 33.7556 10.4618Z" fill="#00B8FF"/>
<path d="M22.9203 47.8582C22.1462 49.8431 20.6533 50.4101 18.1705 50.4101H14.2765C14.2514 50.4107 14.2264 50.4067 14.203 50.3983C14.1797 50.3899 14.1584 50.3772 14.1406 50.3611C14.1228 50.345 14.1088 50.3258 14.0994 50.3046C14.09 50.2834 14.0854 50.2607 14.086 50.2379V50.2132L15.2664 41.5006C15.2744 41.4466 15.3035 41.3969 15.3485 41.3607C15.3935 41.3246 15.4513 41.3043 15.5113 41.3037H19.4053C20.871 41.3037 21.9254 41.5006 22.6078 42.0676C23.1915 42.5613 23.503 43.3133 23.503 44.4601C23.503 45.4951 23.3014 46.8892 22.9203 47.8628M21.3861 43.0669C20.9516 42.5485 20.1765 42.4377 19.0525 42.4377H16.7865L15.8641 49.2807H18.1302C19.8942 49.2688 20.8841 48.9601 21.4133 47.283C21.6741 46.4153 21.8063 45.5199 21.8065 44.6204C21.8065 43.8931 21.6714 43.3994 21.3861 43.0633" fill="white"/>
<path d="M26.108 47.9937H26.0404V48.1421C26.0404 48.1787 26.0263 48.2035 26.0263 48.2282C26.0263 48.7585 26.2168 49.091 26.5969 49.3008C26.9497 49.484 27.4375 49.5591 28.0212 49.5591C28.7409 49.5591 29.4869 49.3759 30.0161 49.2513C30.0369 49.2417 30.0603 49.2375 30.0836 49.2394C30.1522 49.2394 30.2066 49.276 30.2338 49.3869L30.3417 49.9667V50.0033C30.3421 50.0482 30.3243 50.0916 30.2918 50.1254C30.2593 50.1591 30.2143 50.1809 30.1653 50.1865C29.3306 50.4421 28.4554 50.5711 27.5746 50.5684C24.9538 50.5684 24.4951 49.3228 24.4951 47.892C24.4951 46.5731 24.9558 45.2541 25.5525 44.6496C26.1775 44.0212 27.1271 43.7739 28.2661 43.7739C29.8679 43.7739 31.0755 44.1687 31.0755 45.8092C31.0755 47.8435 29.3256 47.991 26.109 47.991M28.1311 44.7604C26.5575 44.7604 26.2319 45.8944 26.1362 47.0787C28.4022 46.955 29.5695 47.0787 29.5695 45.8696C29.5695 45.0691 28.9859 44.7604 28.1311 44.7604Z" fill="white"/>
<path d="M40.8074 47.9938H40.7388V48.1422C40.7388 48.1788 40.7257 48.2035 40.7257 48.2283C40.7257 48.7586 40.9152 49.0911 41.2952 49.3008C41.6481 49.484 42.137 49.5591 42.7206 49.5591C43.4393 49.5591 44.1853 49.3759 44.7145 49.2514C44.7357 49.2417 44.7594 49.2376 44.783 49.2395C44.8506 49.2395 44.905 49.2761 44.9322 49.3869L45.0401 49.9667V50.0034C45.0405 50.0481 45.0229 50.0914 44.9906 50.1252C44.9583 50.1589 44.9135 50.1807 44.8647 50.1866C44.0297 50.4422 43.1541 50.5712 42.273 50.5685C39.6522 50.5685 39.1925 49.3228 39.1925 47.8921C39.1925 46.5731 39.6542 45.2542 40.2509 44.6496C40.8749 44.0213 41.8245 43.774 42.9645 43.774C44.5653 43.774 45.7739 44.1688 45.7739 45.8092C45.7739 47.8435 44.023 47.991 40.8074 47.991M42.8234 44.7605C41.2499 44.7605 40.9243 45.8944 40.8295 47.0787C43.0956 46.9551 44.2568 47.0787 44.2568 45.8697C44.2568 45.0691 43.6732 44.7605 42.8184 44.7605" fill="white"/>
<path d="M49.628 50.1883C49.6278 50.2262 49.6147 50.2631 49.5905 50.2939C49.5663 50.3248 49.5322 50.348 49.4929 50.3605C49.1271 50.4777 48.7405 50.5324 48.3528 50.5218C47.8488 50.5218 47.4849 50.4228 47.2268 50.2012C46.996 50.018 46.874 49.7322 46.874 49.3622C46.885 49.0484 46.9166 48.7355 46.9688 48.4251L47.9052 41.5454C47.9039 41.4915 47.926 41.4392 47.9667 41.4C48.0075 41.3607 48.0636 41.3376 48.123 41.3357L49.262 41.1378H49.3165C49.3374 41.1375 49.3582 41.1412 49.3774 41.1487C49.3967 41.1562 49.4139 41.1673 49.428 41.1813C49.4422 41.1954 49.4528 41.212 49.4593 41.2301C49.4658 41.2482 49.468 41.2673 49.4657 41.2862V41.3238L48.502 48.4004C48.4654 48.621 48.4428 48.8433 48.4344 49.0663C48.4307 49.1716 48.4639 49.2752 48.5292 49.3622C48.6433 49.4455 48.7861 49.4893 48.9324 49.4858C49.0923 49.4877 49.2519 49.4711 49.4072 49.4364H49.4616C49.5292 49.4364 49.5705 49.4611 49.5836 49.5472L49.6239 50.1636L49.628 50.1883Z" fill="white"/>
<path d="M57.322 48.2163C56.954 49.5839 56.1285 50.5685 53.7535 50.5685C52.5862 50.5685 51.8675 50.3331 51.4351 49.9273C50.9744 49.5078 50.8242 48.9042 50.8242 48.2017C50.8291 47.4546 50.9378 46.7111 51.1478 45.9888C51.5419 44.6945 52.3967 43.7822 54.6759 43.7822C55.8704 43.7822 56.6032 44.0286 57.0377 44.4472C57.4722 44.8658 57.6072 45.4712 57.6072 46.1738C57.5944 46.8636 57.4988 47.55 57.322 48.2209M55.7615 45.1626C55.5448 44.9162 55.1648 44.7962 54.5398 44.7962C53.3191 44.7962 52.8987 45.2771 52.682 46.128C52.5067 46.8323 52.4111 47.5511 52.3967 48.2731C52.3967 48.7174 52.4784 49.0618 52.7495 49.2807C52.9804 49.4639 53.3332 49.5637 53.8896 49.5637C55.2323 49.5637 55.6123 48.9848 55.816 47.9489C55.9107 47.4066 56.0327 46.6913 56.0327 46.161C56.0327 45.7295 55.9793 45.397 55.7615 45.1626Z" fill="white"/>
<path d="M65.1123 48.5982C64.6778 49.8549 63.7827 50.5684 61.9098 50.5684C61.255 50.5723 60.6025 50.4974 59.9694 50.3459L60.0238 51.085L59.8222 52.578C59.8206 52.6344 59.7962 52.6882 59.7536 52.7291C59.7109 52.77 59.6532 52.7952 59.5913 52.7997L58.4664 52.9994H58.412C58.3901 53.0012 58.3681 52.9986 58.3475 52.9919C58.3269 52.9851 58.3082 52.9743 58.2927 52.9602C58.2772 52.9462 58.2653 52.9292 58.2579 52.9104C58.2505 52.8917 58.2476 52.8717 58.2497 52.8519C58.2488 52.8452 58.2495 52.8383 58.2517 52.8318C58.254 52.8254 58.2578 52.8194 58.2628 52.8144L59.294 45.1579C59.3756 44.5662 59.552 44.3684 60.2163 44.1714C61.1122 43.914 62.0458 43.7812 62.9854 43.7776C63.9753 43.7776 64.5982 43.9864 64.9934 44.3684C65.4137 44.776 65.5357 45.3558 65.5357 46.1316C65.5319 46.9683 65.3902 47.7997 65.1153 48.5982M63.69 45.1451C63.446 44.8621 63.0529 44.8126 62.4965 44.8126C61.8171 44.8126 60.8413 45.0471 60.8413 45.0471L60.2577 49.3997C60.744 49.52 61.2465 49.578 61.7505 49.5719C62.8352 49.5719 63.3785 49.2394 63.6769 48.1293C63.849 47.5126 63.94 46.8795 63.948 46.2433C63.948 45.7002 63.8674 45.3677 63.69 45.1442" fill="white"/>
<path d="M78.0213 46.0089L77.4517 50.2223C77.4501 50.2482 77.4427 50.2735 77.4302 50.2968C77.4176 50.3201 77.4001 50.3408 77.3786 50.3579C77.3571 50.3749 77.3321 50.3879 77.305 50.3961C77.2779 50.4043 77.2493 50.4075 77.2209 50.4055H76.106C76.0815 50.4085 76.0565 50.4065 76.0329 50.3997C76.0093 50.3929 75.9876 50.3814 75.9695 50.3661C75.9513 50.3508 75.9372 50.332 75.928 50.311C75.9189 50.2901 75.9149 50.2676 75.9165 50.2452V50.2204L76.486 46.0291C76.5001 45.8678 76.5274 45.6956 76.5274 45.5354C76.5274 45.289 76.4729 45.1159 76.3368 44.9931C76.1745 44.8447 75.9024 44.7834 75.5093 44.7834C74.8179 44.7991 74.1307 44.886 73.4609 45.0426L72.7553 50.2204C72.753 50.2707 72.7289 50.3182 72.6883 50.3524C72.6478 50.3867 72.594 50.4051 72.5386 50.4036H71.4086C71.3842 50.4057 71.3596 50.4031 71.3364 50.3959C71.3132 50.3888 71.2919 50.3772 71.274 50.3621C71.256 50.347 71.2417 50.3286 71.2321 50.3081C71.2225 50.2877 71.2177 50.2656 71.2181 50.2433V50.2186L71.8017 45.953C71.8158 45.8175 71.8431 45.6782 71.8431 45.5335C71.8431 45.2752 71.7886 45.1021 71.6525 44.9794C71.4892 44.8429 71.2322 44.7815 70.8391 44.7815C70.1385 44.7985 69.4421 44.8854 68.7625 45.0407L68.0569 50.2186C68.0543 50.2688 68.0301 50.3161 67.9896 50.3503C67.9491 50.3846 67.8955 50.4031 67.8402 50.4018H66.7132C66.6887 50.4047 66.6638 50.4026 66.6403 50.3957C66.6167 50.3888 66.5952 50.3773 66.5771 50.362C66.559 50.3467 66.5448 50.328 66.5356 50.3072C66.5264 50.2863 66.5223 50.2639 66.5237 50.2415V50.2168L67.2293 44.9775C67.2969 44.4967 67.4874 44.3236 68.2474 44.1138C69.1792 43.8995 70.1351 43.784 71.0961 43.7694C71.9509 43.7694 72.5346 43.9288 72.8602 44.2127C73.4166 44.0295 74.8006 43.7694 75.8046 43.7694C76.6725 43.7694 77.3106 43.8802 77.6906 44.2008C77.9618 44.4225 78.0938 44.7504 78.0938 45.2239C78.0871 45.4843 78.0598 45.7439 78.0122 46.0007" fill="white"/>
<path d="M98.6732 31.6642L90.995 25.2022L97.894 18.982C97.5507 19.2353 97.1484 19.4142 96.7176 19.505H96.7055L96.5977 19.5251L96.5573 19.5315L96.4696 19.5444L96.4031 19.5517L96.3356 19.559L96.2418 19.5654H96.1955C96.1481 19.5654 96.1007 19.5654 96.0523 19.5654C95.4827 19.5661 94.9254 19.4147 94.4497 19.1299C93.974 18.8452 93.6009 18.4397 93.3768 17.9638C93.1526 17.488 93.0873 16.9628 93.189 16.4535C93.2906 15.9442 93.5548 15.4733 93.9486 15.0993L85.3904 22.7932V7.91364C85.3904 7.2213 85.0877 6.55732 84.549 6.06777C84.0102 5.57821 83.2795 5.30318 82.5175 5.30318C81.7556 5.30318 81.0249 5.57821 80.4861 6.06777C79.9473 6.55732 79.6447 7.2213 79.6447 7.91364V28.8074C79.6251 29.4147 79.3409 29.9901 78.8545 30.407C78.3681 30.8239 77.7194 31.0481 77.051 31.0304C76.3827 31.0126 75.7494 30.7544 75.2906 30.3124C74.8318 29.8704 74.585 29.281 74.6045 28.6736V25.8772C74.6045 20.1407 69.766 15.647 63.5818 15.647C60.931 15.6307 58.3616 16.4779 56.3391 18.0349C55.5562 17.1956 54.5816 16.5213 53.483 16.0588C52.3844 15.5963 51.1882 15.3567 49.9774 15.3566C45.3909 15.3566 41.6421 18.7457 41.6421 22.9151V28.594C41.6421 29.2013 41.3766 29.7837 40.904 30.2131C40.4314 30.6426 39.7904 30.8838 39.122 30.8838C38.4536 30.8838 37.8126 30.6426 37.34 30.2131C36.8674 29.7837 36.6019 29.2013 36.6019 28.594V18.2996C36.6019 17.6073 36.2993 16.9433 35.7605 16.4537C35.2217 15.9642 34.491 15.6891 33.7291 15.6891C32.9671 15.6891 32.2364 15.9642 31.6976 16.4537C31.1589 16.9433 30.8562 17.6073 30.8562 18.2996V24.8688C30.8562 27.5763 30.0498 30.8838 25.5923 30.8838C21.2295 30.8838 19.8606 27.6047 19.8606 24.8688V16.977C23.6367 14.437 27.1628 11.5353 28.2373 8.85524C29.3774 6.06434 28.8633 3.25603 26.8946 1.52305C25.0983 -0.0578751 22.4956 -0.433415 19.9393 0.51551C14.6411 2.48389 14.1572 9.17399 14.1199 9.92965C14.1199 9.96079 14.1199 9.99101 14.1199 10.0212C14.1199 10.198 14.0988 11.9347 14.0826 14.2346C13.2137 14.7778 1.3331 21.2874 0.485352 21.7033C1.16732 21.4154 1.94564 21.3793 2.65634 21.6025C3.36703 21.8258 3.95462 22.291 4.29529 22.9001C4.63597 23.5093 4.70313 24.2148 4.48264 24.868C4.26215 25.5213 3.77122 26.0712 3.11328 26.4021C3.68483 26.1273 8.67355 23.7019 14.0645 20.5657C14.0645 22.426 14.0645 25.945 14.0645 25.945C14.0836 31.5717 19.1963 36.1441 25.3927 36.1441C28.0135 36.1441 30.6082 35.1164 32.6666 33.2919C33.7419 34.5141 35.2081 35.403 36.863 35.836C38.5178 36.269 40.2797 36.2248 41.9057 35.7094C43.5317 35.1941 44.9417 34.2329 45.9411 32.9586C46.9405 31.6843 47.4802 30.1596 47.4856 28.5949V22.916C47.4843 22.3095 47.7481 21.7274 48.2191 21.2977C48.6901 20.868 49.3297 20.6259 49.9971 20.6247C50.6645 20.6235 51.3051 20.8633 51.778 21.2912C52.2509 21.7192 52.5173 22.3004 52.5187 22.9068V33.0839C52.589 32.4701 52.8949 31.8984 53.3828 31.4691C53.8708 31.0398 54.5095 30.7804 55.1869 30.7364C55.2457 30.7287 55.305 30.7247 55.3643 30.7245C55.5631 30.7245 55.7614 30.743 55.956 30.7794C56.5979 30.8969 57.1768 31.2089 57.598 31.6643C58.0192 32.1198 58.2577 32.6917 58.2745 33.2864L58.3027 25.3707C58.4912 22.8061 60.722 20.9165 63.606 20.9165C66.5363 20.9165 68.8558 23.0946 68.8558 25.8772V28.6773C68.8531 30.6789 69.7253 32.5995 71.2806 34.0168C72.8359 35.4342 74.947 36.2323 77.1498 36.2357C81.7363 36.2357 85.3874 32.8467 85.3874 28.6773V27.7037L94.7086 35.5295C95.2727 36.0072 96.0226 36.2618 96.7932 36.2371C97.5638 36.2125 98.2921 35.9107 98.8178 35.3981C99.3436 34.8855 99.6237 34.2042 99.5965 33.5039C99.5694 32.8037 99.2373 32.1419 98.6732 31.6642ZM19.907 10.1394C19.9997 8.71418 20.7346 5.91412 22.1247 5.39661C22.5228 5.24822 22.7779 5.28395 22.8555 5.30501C23.1055 5.38378 23.3595 5.91778 22.794 7.02333C22.79 7.03105 22.7867 7.03901 22.7839 7.04715C22.6377 7.41353 22.0309 8.55938 19.904 10.1614C19.9045 10.1537 19.9055 10.1461 19.907 10.1385V10.1394Z" fill="white"/>
<path d="M94.0368 46.0474L93.4672 50.2516C93.4646 50.302 93.4403 50.3494 93.3996 50.3837C93.3589 50.418 93.305 50.4363 93.2495 50.4348H92.1235C92.099 50.4378 92.0739 50.4359 92.0503 50.4291C92.0266 50.4222 92.0049 50.4108 91.9867 50.3955C91.9685 50.3801 91.9543 50.3614 91.945 50.3405C91.9357 50.3196 91.9316 50.297 91.933 50.2745V50.2498L92.5036 46.0456C92.5352 45.8745 92.5534 45.7015 92.558 45.5281C92.5646 45.4365 92.5512 45.3447 92.5185 45.2579C92.4858 45.1711 92.4345 45.0911 92.3675 45.0225C92.2052 44.8741 91.9471 44.8127 91.554 44.8127C90.8623 44.8285 90.1748 44.9155 89.5047 45.0719L88.7991 50.2498C88.7965 50.3 88.7723 50.3473 88.7318 50.3815C88.6913 50.4158 88.6376 50.4342 88.5823 50.433H87.4523C87.4278 50.4358 87.4029 50.4338 87.3794 50.4269C87.3559 50.42 87.3343 50.4085 87.3162 50.3932C87.2981 50.3779 87.284 50.3592 87.2747 50.3384C87.2655 50.3175 87.2615 50.2951 87.2628 50.2727V50.248L87.9685 45.0087C88.036 44.5279 88.2265 44.3547 88.9866 44.145C89.9139 43.9306 90.8654 43.8151 91.8221 43.8006C92.6769 43.8006 93.3009 43.9114 93.6809 44.2073C93.9662 44.4289 94.1154 44.7495 94.1154 45.2148C94.1082 45.4909 94.0809 45.7663 94.0338 46.0392" fill="white"/>
<path d="M99.8047 44.8246C99.7994 44.8761 99.7726 44.9237 99.7298 44.9577C99.6871 44.9918 99.6317 45.0097 99.5749 45.0078H97.5125L97.0367 48.4601C97.0236 48.6203 96.9964 48.7806 96.9964 48.9281C96.987 49.0724 97.0406 49.2142 97.1455 49.3229C97.2806 49.4584 97.5397 49.5198 97.9056 49.5198C98.285 49.5091 98.6622 49.4636 99.0316 49.3842H99.086C99.1676 49.3842 99.208 49.4337 99.2221 49.5079L99.2896 50.1115V50.1372C99.2865 50.1826 99.2679 50.226 99.2362 50.2614C99.2046 50.2967 99.1616 50.3221 99.1132 50.3341C98.5562 50.4803 97.9794 50.5552 97.3996 50.5567C96.6536 50.5567 96.1375 50.4211 95.8119 50.1124C95.5811 49.8779 95.4591 49.5574 95.4591 49.1259C95.4586 48.8913 95.4721 48.6568 95.4994 48.4234L96.3411 42.195C96.3456 42.1385 96.3731 42.0857 96.4183 42.0467C96.4634 42.0078 96.5229 41.9855 96.5851 41.9843L97.711 41.7755H97.7655C97.8744 41.7755 97.9147 41.8368 97.9147 41.9238V41.9596L97.6435 43.9572H99.7059C99.7302 43.9553 99.7547 43.958 99.7778 43.9653C99.8009 43.9725 99.822 43.984 99.8399 43.9991C99.8577 44.0142 99.8719 44.0326 99.8815 44.053C99.8911 44.0734 99.8958 44.0954 99.8954 44.1175V44.1423L99.8047 44.8246Z" fill="white"/>
</svg>
