<svg width="101" height="21" viewBox="0 0 101 21" fill="none" xmlns="http://www.w3.org/2000/svg">
<path d="M10.1542 1.56438C10.263 1.22936 10.737 1.22936 10.8458 1.56438L12.6635 7.15856C12.7122 7.30839 12.8518 7.40983 13.0093 7.40983H18.8914C19.2437 7.40983 19.3901 7.8606 19.1051 8.06765L14.3465 11.525C14.219 11.6176 14.1657 11.7818 14.2144 11.9316L16.032 17.5258C16.1409 17.8608 15.7574 18.1394 15.4724 17.9323L10.7137 14.475C10.5863 14.3824 10.4137 14.3824 10.2863 14.475L5.52757 17.9323C5.24258 18.1394 4.85913 17.8608 4.96799 17.5258L6.78565 11.9316C6.83433 11.7818 6.781 11.6176 6.65355 11.525L1.89485 8.06765C1.60987 7.8606 1.75633 7.40983 2.10859 7.40983H7.99066C8.1482 7.40983 8.28782 7.30839 8.3365 7.15856L10.1542 1.56438Z" fill="#EAB308"/>
<path d="M30.1542 1.56438C30.263 1.22936 30.737 1.22936 30.8458 1.56438L32.6635 7.15856C32.7122 7.30839 32.8518 7.40983 33.0093 7.40983H38.8914C39.2437 7.40983 39.3901 7.8606 39.1051 8.06765L34.3465 11.525C34.219 11.6176 34.1657 11.7818 34.2144 11.9316L36.032 17.5258C36.1409 17.8608 35.7574 18.1394 35.4724 17.9323L30.7137 14.475C30.5863 14.3824 30.4137 14.3824 30.2863 14.475L25.5276 17.9323C25.2426 18.1394 24.8591 17.8608 24.968 17.5258L26.7856 11.9316C26.8343 11.7818 26.781 11.6176 26.6535 11.525L21.8949 8.06765C21.6099 7.8606 21.7563 7.40983 22.1086 7.40983H27.9907C28.1482 7.40983 28.2878 7.30839 28.3365 7.15856L30.1542 1.56438Z" fill="#EAB308"/>
<path d="M50.1542 1.56438C50.263 1.22936 50.737 1.22936 50.8458 1.56438L52.6635 7.15856C52.7122 7.30839 52.8518 7.40983 53.0093 7.40983H58.8914C59.2437 7.40983 59.3901 7.8606 59.1051 8.06765L54.3465 11.525C54.219 11.6176 54.1657 11.7818 54.2144 11.9316L56.032 17.5258C56.1409 17.8608 55.7574 18.1394 55.4724 17.9323L50.7137 14.475C50.5863 14.3824 50.4137 14.3824 50.2863 14.475L45.5276 17.9323C45.2426 18.1394 44.8591 17.8608 44.968 17.5258L46.7856 11.9316C46.8343 11.7818 46.781 11.6176 46.6535 11.525L41.8949 8.06765C41.6099 7.8606 41.7563 7.40983 42.1086 7.40983H47.9907C48.1482 7.40983 48.2878 7.30839 48.3365 7.15856L50.1542 1.56438Z" fill="#EAB308"/>
<path d="M70.1542 1.56438C70.263 1.22936 70.737 1.22936 70.8458 1.56438L72.6635 7.15856C72.7122 7.30839 72.8518 7.40983 73.0093 7.40983H78.8914C79.2437 7.40983 79.3901 7.8606 79.1051 8.06765L74.3465 11.525C74.219 11.6176 74.1657 11.7818 74.2144 11.9316L76.032 17.5258C76.1409 17.8608 75.7574 18.1394 75.4724 17.9323L70.7137 14.475C70.5863 14.3824 70.4137 14.3824 70.2863 14.475L65.5276 17.9323C65.2426 18.1394 64.8591 17.8608 64.968 17.5258L66.7856 11.9316C66.8343 11.7818 66.781 11.6176 66.6535 11.525L61.8949 8.06765C61.6099 7.8606 61.7563 7.40983 62.1086 7.40983H67.9907C68.1482 7.40983 68.2878 7.30839 68.3365 7.15856L70.1542 1.56438Z" fill="#EAB308"/>
<path d="M90.1542 1.56438C90.263 1.22936 90.737 1.22936 90.8458 1.56438L92.6635 7.15856C92.7122 7.30839 92.8518 7.40983 93.0093 7.40983H98.8914C99.2437 7.40983 99.3901 7.8606 99.1051 8.06765L94.3465 11.525C94.219 11.6176 94.1657 11.7818 94.2144 11.9316L96.032 17.5258C96.1409 17.8608 95.7574 18.1394 95.4724 17.9323L90.7137 14.475C90.5863 14.3824 90.4137 14.3824 90.2863 14.475L85.5276 17.9323C85.2426 18.1394 84.8591 17.8608 84.968 17.5258L86.7856 11.9316C86.8343 11.7818 86.781 11.6176 86.6535 11.525L81.8949 8.06765C81.6099 7.8606 81.7563 7.40983 82.1086 7.40983H87.9907C88.1482 7.40983 88.2878 7.30839 88.3365 7.15856L90.1542 1.56438Z" fill="#EAB308"/>
</svg>
